<?xml version="1.0" encoding="UTF-8" standalone="no"?><!-- Generator: Gravit.io --><svg xmlns="http://www.w3.org/2000/svg" xmlns:xlink="http://www.w3.org/1999/xlink" style="isolation:isolate" viewBox="458.582 316.433 454.69 393.175" width="454.69pt" height="393.175pt"><defs><clipPath id="_clipPath_hoqAM6uQG3rYYsScF5sPc8yzyyHrtzXa"><rect x="458.582" y="316.433" width="454.69" height="393.175"/></clipPath></defs><g clip-path="url(#_clipPath_hoqAM6uQG3rYYsScF5sPc8yzyyHrtzXa)"><path d=" M 806.877 343.618 C 804.649 345.178 795.095 351.966 791.762 354.58 L 745.311 388.961 L 543.362 332.809 L 491.911 368.836 L 647.428 460.893 L 568.542 517.887 L 501.268 499.01 L 458.582 528.899 L 529.484 594.226 C 529.917 594.582 530.368 594.913 530.83 595.224 C 530.871 595.256 530.901 595.298 530.917 595.347 C 531.045 595.888 531.203 596.421 531.389 596.945 L 568.48 686.337 L 610.895 656.637 L 616.579 585.515 L 697.093 531.787 L 730.51 709.609 L 782.117 673.473 L 798.288 464.69 L 846.494 432.816 C 850.14 430.543 859.778 423.892 861.957 422.367 C 881.904 408.4 896.305 394.239 904.758 380.263 C 919.114 356.587 912.15 340.051 906.724 332.302 C 889.482 307.678 852.16 311.91 806.877 343.618 Z  M 798.897 456.511" fill="rgb(150,203,228)"/></g></svg>